<?xml version="1.0" standalone="no"?>
<!DOCTYPE svg PUBLIC "-//W3C//DTD SVG 20010904//EN"
 "http://www.w3.org/TR/2001/REC-SVG-20010904/DTD/svg10.dtd">
<svg version="1.0" xmlns="http://www.w3.org/2000/svg"
 width="459.000000pt" height="459.000000pt" viewBox="0 0 459.000000 459.000000"
 preserveAspectRatio="xMidYMid meet">
<metadata>
Created by potrace 1.11, written by Peter Selinger 2001-2013
</metadata>
<g transform="translate(0.000000,459.000000) scale(0.100000,-0.100000)"
fill="#000000" stroke="none">
<path d="M2224 4580 c-119 -18 -143 -36 -486 -378 -176 -174 -335 -341 -354
-370 -66 -99 -79 -244 -32 -371 19 -51 50 -86 359 -397 367 -368 385 -382 510
-405 80 -14 163 -2 247 36 48 22 108 77 388 358 360 361 373 378 393 504 12
75 0 168 -31 233 -25 54 -670 708 -733 744 -74 41 -176 59 -261 46z"/>
<path d="M846 3245 c-27 -8 -72 -29 -100 -49 -67 -46 -678 -661 -700 -705 -67
-130 -59 -308 18 -419 14 -21 171 -182 348 -358 372 -369 380 -375 527 -382
98 -5 163 10 232 53 24 15 189 172 366 349 294 294 325 327 355 391 30 65 33
78 33 170 0 92 -3 105 -33 170 -30 63 -61 98 -355 391 -177 177 -342 334 -367
350 -83 51 -219 68 -324 39z"/>
<path d="M3497 3246 c-26 -8 -68 -28 -95 -44 -26 -17 -192 -176 -369 -354
-274 -275 -326 -332 -348 -381 -51 -110 -51 -234 0 -344 22 -50 74 -106 363
-394 399 -398 393 -394 562 -394 98 0 110 2 175 33 64 30 98 61 396 360 355
356 369 373 390 500 9 53 9 86 0 137 -22 125 -36 143 -390 497 -297 298 -332
330 -394 359 -57 26 -83 32 -155 35 -54 2 -105 -2 -135 -10z"/>
<path d="M2190 1926 c-30 -8 -75 -26 -100 -40 -56 -31 -701 -677 -725 -726
-66 -129 -57 -288 21 -405 18 -27 176 -193 352 -367 268 -267 327 -322 375
-343 120 -55 256 -51 372 12 47 25 693 672 723 723 30 53 45 138 40 228 -8
138 -21 156 -342 481 -335 338 -395 392 -470 420 -74 28 -176 34 -246 17z"/>
</g>
</svg>
